<svg width="728" height="500" viewBox="0 0 728 500" fill="none" xmlns="http://www.w3.org/2000/svg">
<path d="M146.27 186.31H48.48V368.18H146.27V186.31Z" fill="#EBEBEB"/>
<path d="M151 181.29H43.74V186.31H151V181.29Z" fill="#DBDBDB"/>
<path d="M184.73 181.29H151V186.31H184.73V181.29Z" fill="#EBEBEB"/>
<path d="M179.4 186.31H146.27V368.18H179.4V186.31Z" fill="#DBDBDB"/>
<path d="M135.74 249H59V205.57H135.74V249ZM59.25 248.75H135.49V205.82H59.25V248.75Z" fill="#C7C7C7"/>
<path d="M101.6 218.25H86.6599V226.84H101.6V218.25Z" fill="#C7C7C7"/>
<path d="M106.14 226.31H91V218.77H106.18L106.14 226.31ZM91.21 226.06H105.89V219.06H91.21V226.06Z" fill="#C7C7C7"/>
<path d="M135.74 303.43H59V260.05H135.74V303.43ZM59.25 303.18H135.49V260.3H59.25V303.18Z" fill="#C7C7C7"/>
<path d="M101.6 272.73H86.6599V281.32H101.6V272.73Z" fill="#C7C7C7"/>
<path d="M106.14 280.8H91V273.25H106.18L106.14 280.8ZM91.21 280.55H105.89V273.5H91.21V280.55Z" fill="#C7C7C7"/>
<path d="M135.74 357.91H59V314.53H135.74V357.91ZM59.25 357.66H135.49V314.78H59.25V357.66Z" fill="#C7C7C7"/>
<path d="M101.6 327.21H86.6599V335.8H101.6V327.21Z" fill="#C7C7C7"/>
<path d="M106.14 335.28H91V327.74H106.18L106.14 335.28ZM91.21 335H105.89V328H91.21V335Z" fill="#C7C7C7"/>
<path d="M645.79 239.31H548V368.18H645.79V239.31Z" fill="#EBEBEB"/>
<path d="M650.52 234.29H543.26V239.31H650.52V234.29Z" fill="#DBDBDB"/>
<path d="M684.25 234.29H650.52V239.31H684.25V234.29Z" fill="#EBEBEB"/>
<path d="M678.92 239.31H645.79V368.18H678.92V239.31Z" fill="#DBDBDB"/>
<path d="M635.14 258.7H558.65V301.82H635.14V258.7Z" fill="#A6A6A6"/>
<path d="M627.69 247.66H569.46V289.87H627.69V247.66Z" fill="#C7C7C7"/>
<path d="M590.03 243.28H569.46V247.66H591.22L590.03 243.28Z" fill="#C7C7C7"/>
<path d="M627.53 289.86H569.31L564.82 251.16H623.04L627.53 289.86Z" fill="#A6A6A6"/>
<path d="M584.92 247.15H564.35L564.82 251.16H586.57L584.92 247.15Z" fill="#A6A6A6"/>
<path d="M598.29 258.7H521.8V301.82H598.29V258.7Z" fill="#EBEBEB"/>
<path d="M598.41 302H521.68V258.57H598.41V302ZM521.93 301.75H598.16V258.82H521.93V301.75Z" fill="#C7C7C7"/>
<path d="M564.28 271.25H549.34V279.84H564.28V271.25Z" fill="#C7C7C7"/>
<path d="M568.81 279.32H553.63V271.77H568.81V279.32ZM553.88 279.07H568.56V272H553.88V279.07Z" fill="#C7C7C7"/>
<path d="M635.14 265.16H598.48V301.82H635.14V265.16Z" fill="#DBDBDB"/>
<path d="M635.26 356.43H558.52V313.05H635.26V356.43ZM558.77 356.18H635V313.3H558.77V356.18Z" fill="#C7C7C7"/>
<path d="M601.12 325.73H586.18V334.32H601.12V325.73Z" fill="#C7C7C7"/>
<path d="M605.66 333.8H590.48V326.25H605.66V333.8ZM590.73 333.55H605.41V326.5H590.73V333.55Z" fill="#C7C7C7"/>
<path d="M38.03 368.18L119.53 367.94L201.02 367.85L364 367.68L526.98 367.85L608.47 367.94L689.97 368.18L608.47 368.43L526.98 368.51L364 368.68L201.02 368.51L119.53 368.42L38.03 368.18Z" fill="#263238"/>
<path d="M364 458.83C522.362 458.83 650.74 444.763 650.74 427.41C650.74 410.057 522.362 395.99 364 395.99C205.638 395.99 77.26 410.057 77.26 427.41C77.26 444.763 205.638 458.83 364 458.83Z" fill="#EBEBEB"/>
<path d="M663.35 296.87C662.411 300.292 661.792 303.794 661.5 307.33C661.6 307.5 661.58 308.15 661.5 307.97C661.5 308.55 660.61 308.44 660.61 307.88V306.78C658.61 304.24 655.61 302.63 653.2 300.43C651.272 298.696 649.866 296.459 649.14 293.97C647.14 287.11 649.02 279.84 646.62 272.97C644.56 267.08 640.86 261.97 637.73 256.61C634.43 250.96 631.99 245.02 631.73 238.4C631.54 233.34 632.14 226.58 636 222.79C640.09 218.79 645.16 221.79 648.3 225.37C657.38 235.79 661.58 248.96 663.3 262.43C664.24 269.89 665.21 277.43 664.99 284.91C664.843 288.941 664.293 292.948 663.35 296.87Z" fill="#0284B2"/>
<path d="M661.54 310.06C662.037 303.028 661.953 295.968 661.29 288.95C661.29 288.95 661.29 288.9 661.29 288.87C661.4 283.16 661.85 277.48 661.63 271.76C661.355 265.58 660.515 259.437 659.12 253.41C659.12 253.34 658.99 253.41 659.01 253.41C660.131 259.331 660.8 265.328 661.01 271.35C661.13 274.583 661.107 277.81 660.94 281.03C660.88 282.08 660.78 283.13 660.71 284.19C658.33 268.165 652.533 252.838 643.71 239.25C643.59 239.06 643.26 239.25 643.38 239.45C649.675 249.778 654.337 261.018 657.2 272.77C652.83 264.68 646.2 258.03 641.34 250.25C641.34 250.25 641.25 250.25 641.27 250.3C645.66 258.96 652.93 265.78 657.56 274.3C658.36 277.78 659.02 281.3 659.51 284.81C660.164 289.653 660.515 294.533 660.56 299.42C657.9 294.42 655.14 289.69 652.96 284.42C652.96 284.28 652.7 284.42 652.75 284.52C654.6 289.98 657.09 295.87 660.58 300.52C660.58 303.98 660.483 307.437 660.29 310.89C659.75 320.11 658.17 329.21 657.44 338.4C657.433 338.456 657.449 338.512 657.484 338.556C657.518 338.6 657.569 338.628 657.625 338.635C657.681 338.642 657.737 338.626 657.781 338.591C657.825 338.556 657.853 338.506 657.86 338.45C659.729 329.081 660.959 319.596 661.54 310.06Z" fill="#263238"/>
<path d="M651.75 239C651.744 238.992 651.737 238.985 651.728 238.98C651.72 238.976 651.71 238.973 651.7 238.973C651.69 238.973 651.68 238.976 651.672 238.98C651.663 238.985 651.655 238.992 651.65 239C653.33 243.65 654.28 248.37 655.5 253.15C655.514 253.19 655.542 253.224 655.578 253.246C655.615 253.268 655.658 253.275 655.7 253.268C655.742 253.261 655.78 253.239 655.808 253.207C655.835 253.174 655.85 253.133 655.85 253.09C655.167 248.221 653.786 243.475 651.75 239Z" fill="#263238"/>
<path d="M694.51 258.48C693.39 261.225 692.097 263.897 690.64 266.48C687.64 271.98 684.44 277.03 683.87 283.48C683.78 286.35 683.371 289.201 682.65 291.98C681.858 294.352 680.719 296.593 679.27 298.63C675.98 303.42 671.87 307.54 668.83 312.51C665.659 317.691 663.318 323.336 661.89 329.24C661.81 329.56 661.31 329.47 661.38 329.15C661.386 329.127 661.386 329.103 661.38 329.08C661.38 329.08 661.38 329.08 661.38 329.01C660.9 315.26 662 301.41 666.19 288.23C668.04 282.425 670.264 276.746 672.85 271.23C674.969 266.369 678.028 261.975 681.85 258.3C684.41 255.99 689.96 251.62 693.6 253.94C695.33 255 695.2 256.76 694.51 258.48Z" fill="#0284B2"/>
<path d="M680.7 289.65C678.272 293.637 675.6 297.471 672.7 301.13C671.36 302.87 670.01 304.59 668.7 306.33C668.07 307.16 667.36 307.98 666.79 308.86C667.15 307.41 667.5 305.96 667.87 304.52C669.65 297.57 671.35 290.57 674 283.89C676.703 277.418 679.892 271.16 683.54 265.17C683.63 265.01 683.38 264.9 683.28 265.05C680.38 269.83 677.43 274.6 674.99 279.64C673.636 282.447 672.461 285.336 671.47 288.29C672.586 282.023 674.15 275.844 676.15 269.8C676.15 269.75 676.09 269.71 676.07 269.8C673.451 275.905 671.811 282.384 671.21 289C670.61 290.78 670.06 292.59 669.55 294.4C667.38 302.09 665.48 309.87 663.72 317.67C663.688 312.543 664.133 307.424 665.05 302.38C665.05 302.356 665.041 302.333 665.024 302.316C665.007 302.299 664.984 302.29 664.96 302.29C664.936 302.29 664.913 302.299 664.896 302.316C664.88 302.333 664.87 302.356 664.87 302.38C663.525 307.637 663.076 313.083 663.54 318.49C662.873 321.457 662.223 324.427 661.59 327.4C660.24 333.74 658.59 340.19 657.79 346.62C657.79 346.65 657.8 346.679 657.82 346.702C657.839 346.726 657.865 346.742 657.895 346.747C657.924 346.753 657.955 346.749 657.981 346.735C658.008 346.721 658.028 346.698 658.04 346.67C659.04 343.2 659.55 339.6 660.33 336.09C661.11 332.58 661.9 329.09 662.72 325.54C663.907 320.42 665.147 315.313 666.44 310.22C667.29 308.36 668.93 306.7 670.17 305.13C671.41 303.56 672.87 301.69 674.17 299.94C676.642 296.706 678.856 293.282 680.79 289.7C680.86 289.63 680.74 289.57 680.7 289.65Z" fill="#263238"/>
<path d="M681.28 283.77C678.254 287.631 675.634 291.793 673.46 296.19C673.46 296.25 673.52 296.31 673.56 296.25C676.19 292.13 678.78 287.97 681.4 283.84C681.45 283.78 681.33 283.7 681.28 283.77Z" fill="#263238"/>
<path d="M622.75 271.51C624.54 274.58 626.57 278.27 625.75 281.95C625.27 284.28 623.56 286.18 623.25 288.56C622.56 293.81 627.8 297.28 631.59 299.76C641.03 305.96 653.97 311.48 655.69 324.13C655.76 324.57 656.53 324.46 656.47 324.02C656.473 323.993 656.473 323.967 656.47 323.94C656.47 323.94 656.47 323.94 656.47 323.87C657.711 317.483 657.65 310.912 656.29 304.55C654.89 298.03 652.04 292.17 648.68 286.44C643 276.75 636.98 266.82 628.39 259.44C626.01 257.38 621.14 253.69 619.25 258.33C617.36 262.97 620.57 267.77 622.75 271.51Z" fill="#0284B2"/>
<path d="M631.4 292.06C637.65 298.84 647.61 302.64 652.99 310.23C649.985 298.676 644.298 287.994 636.39 279.05C636.19 278.82 636.51 278.48 636.74 278.7C642.502 284.3 647.109 290.976 650.3 298.35C648.818 293.201 646.863 288.2 644.46 283.41C644.439 283.373 644.433 283.329 644.445 283.288C644.456 283.246 644.483 283.211 644.52 283.19C644.557 283.169 644.601 283.163 644.643 283.174C644.684 283.186 644.719 283.213 644.74 283.25C647.697 288.468 649.809 294.122 651 300C658.09 317.19 658.75 337.34 657.26 355.46C657.26 355.72 656.85 355.73 656.86 355.46C657.26 341.18 657.03 326.66 653.61 312.72C653.54 312.43 653.46 312.14 653.39 311.85C647.53 303.68 637.62 299.85 631.25 292.13C631.23 292.1 631.33 292 631.4 292.06Z" fill="#263238"/>
<path d="M629.42 273.18C632.33 277.948 635.621 282.473 639.26 286.71C639.265 286.716 639.269 286.723 639.272 286.73C639.275 286.738 639.276 286.746 639.275 286.754C639.275 286.761 639.273 286.769 639.269 286.776C639.266 286.783 639.261 286.79 639.255 286.795C639.249 286.8 639.242 286.804 639.235 286.807C639.227 286.809 639.219 286.811 639.212 286.81C639.204 286.81 639.196 286.808 639.189 286.804C639.182 286.801 639.175 286.796 639.17 286.79C635.091 282.912 631.732 278.341 629.25 273.29C629.236 273.267 629.231 273.24 629.236 273.214C629.242 273.187 629.258 273.165 629.28 273.15C629.303 273.135 629.33 273.13 629.356 273.136C629.383 273.142 629.406 273.157 629.42 273.18Z" fill="#263238"/>
<path d="M644.22 368.27H673L669.12 329.55H648.65L644.22 368.27Z" fill="#455A64"/>
<path d="M647.93 335.85H669.75L669.12 329.55H648.65L647.93 335.85Z" fill="#263238"/>
<path d="M645.12 331.45H672.1V325.27H645.12V331.45Z" fill="#455A64"/>
<path d="M210.65 437.42C208.32 438.18 141.94 437.32 139.44 435.68C138.44 435.07 138.03 425.39 137.84 413.68V413.31C137.79 410.9 137.76 408.41 137.76 405.9C137.76 405.55 137.76 405.2 137.76 404.9C137.66 388 137.93 370.46 137.93 370.46L182.33 370.9L181 405L180.95 406.35L180.68 413.41V414.14C180.68 414.14 205.94 425.83 208.51 427.92C211.08 430.01 213 436.68 210.65 437.42Z" fill="#DD6A57"/>
<path d="M190.7 418.66C190.53 418.61 190.44 418.55 190.43 418.5L190.7 418.66Z" fill="#0284B2"/>
<path d="M210.64 437.42C208.32 438.17 141.94 437.32 139.43 435.67C138.58 435.14 138.13 427.43 137.91 417.5C150.07 420.04 197.21 429.57 198.5 425.5C199.01 423.92 194.98 421.18 192.43 419.63C199.43 422.95 207.11 426.75 208.43 427.87C211 430 213 436.68 210.64 437.42Z" fill="#0284B2"/>
<path opacity="0.1" d="M169 437.32C154.06 436.96 140.59 436.4 139.48 435.67C138.63 435.14 138.18 427.43 137.96 417.5C139.69 417.85 142.12 418.36 145.03 418.94L169 437.32Z" fill="black"/>
<path d="M124.3 179.21C124.3 179.21 134.3 291.38 135.89 299.94C136.26 301.89 136.5 312.49 136.65 326.11C136.99 355.85 136.79 409.47 136.79 409.47H183.58C183.58 409.47 182.19 316.56 180.12 299.47C178.05 282.38 164.81 179.22 164.81 179.22L124.3 179.21Z" fill="#37474F"/>
<path d="M181.46 401.32C174.16 401.17 176.26 401.11 168.96 401.04C165.39 401.04 141.9 400.8 138.56 401.35C138.49 401.35 138.49 401.49 138.56 401.5C141.9 402.05 165.39 401.85 168.96 401.81C176.26 401.74 174.16 401.68 181.46 401.53C181.482 401.523 181.502 401.509 181.516 401.49C181.53 401.471 181.537 401.448 181.537 401.425C181.537 401.402 181.53 401.379 181.516 401.36C181.502 401.341 181.482 401.327 181.46 401.32Z" fill="#263238"/>
<path d="M145.68 348.2L145.53 327.84C145.48 321.27 145.53 314.69 145.18 308.12C144.54 294.83 141.84 281.75 139.93 268.61C138.02 255.47 136.41 242.25 134.93 229.04C133.3 214.22 131.86 199.37 130.34 184.54C130.34 184.44 130.17 184.44 130.18 184.54C132.39 211.03 134.85 237.54 138.51 263.84C139.43 270.387 140.43 276.923 141.51 283.45C142.61 290.05 143.69 296.66 144.21 303.34C144.73 310.02 144.81 316.43 144.87 322.99L145.08 343.33C145.22 358.4 145.37 381.59 145.51 396.65C145.51 396.711 145.534 396.769 145.577 396.813C145.621 396.856 145.679 396.88 145.74 396.88C145.801 396.88 145.86 396.856 145.903 396.813C145.946 396.769 145.97 396.711 145.97 396.65C145.88 383.2 145.78 361.64 145.68 348.2Z" fill="#263238"/>
<path d="M114.43 179.21C114.43 179.21 134.26 291.38 135.89 299.94C136.26 301.89 136.5 312.49 136.65 326.11L159 179.21H114.43Z" fill="#263238"/>
<path d="M156.31 441.38C153.94 441.97 87.7801 436.38 85.4001 434.59C84.4901 433.92 84.7301 424.23 85.4001 412.59C85.4001 412.47 85.4001 412.34 85.4001 412.22C85.5301 409.81 85.6701 407.33 85.8501 404.82C85.8501 404.47 85.8501 404.13 85.9101 403.82C87.0101 386.96 88.5201 369.48 88.5201 369.48L132.77 373L129 406.91L128.86 408.26L128.09 415.26L128 416C128 416 152.37 429.45 154.78 431.72C157.19 433.99 158.69 440.81 156.31 441.38Z" fill="#DD6A57"/>
<path d="M156.31 441.38C153.93 441.97 87.7901 436.38 85.4001 434.59C84.6201 434.02 84.6801 426.86 85.1201 417.51C95.3601 420.13 144.74 432.51 146.26 428.51C146.57 427.64 145.52 426.36 144.1 425.11C149.22 428.11 153.83 430.84 154.82 431.76C157.2 434 158.68 440.8 156.31 441.38Z" fill="#0284B2"/>
<path d="M130 412L83.25 410C83.25 410 96.01 307.42 96.25 301.11C96.6 291.74 101.09 253.05 104.87 221.73C104.87 221.73 97.71 204.73 111.11 179.15H164.83C164.83 179.15 161.23 203.53 155.06 218.99C150.921 220.435 146.924 222.26 143.12 224.44C143.12 224.44 137.77 294.28 137.57 302.99C137.2 320.23 130 412 130 412Z" fill="#37474F"/>
<path d="M128.77 403.43C121.49 402.97 123.58 403 116.29 402.62C112.72 402.43 89.2901 401.24 85.9101 401.62C85.8401 401.62 85.8301 401.75 85.9101 401.76C89.2201 402.46 112.69 403.25 116.26 403.37C123.56 403.61 121.46 403.46 128.77 403.61C128.9 403.65 128.91 403.44 128.77 403.43Z" fill="#263238"/>
<path d="M114.67 181.46C111.9 187.46 109.32 193.77 108.35 200.35C107.648 207.408 108.435 214.535 110.66 221.27C110.66 221.27 110.27 226.8 109.85 230.33C109.43 233.86 109.02 237.43 108.61 240.98C107.79 248.153 106.963 255.327 106.13 262.5C104.49 276.767 102.853 291.043 101.22 305.33C99.5866 319.617 97.9699 333.897 96.3699 348.17C94.7799 362.41 93.0799 376.64 91.6699 390.9C91.4899 392.68 91.3199 394.45 91.1499 396.23C91.1499 396.4 91.4399 396.44 91.4599 396.23C93.3599 382 94.9799 367.74 96.6799 353.48C98.3799 339.22 100.01 325.09 101.68 310.89C103.35 296.69 104.99 282.35 106.63 268.07C108.25 254 110.07 239.93 111.46 225.84C111.624 224.209 111.664 222.567 111.58 220.93C111.58 220.93 108.58 210.93 108.95 204.45C109.32 197.68 110.95 192.54 113.36 186.31C113.96 184.75 114.59 183.19 115.19 181.64C115.31 181.37 114.81 181.17 114.67 181.46Z" fill="#263238"/>
<path d="M157.12 218C152.272 219.757 147.588 221.935 143.12 224.51C143.086 224.53 143.061 224.562 143.049 224.599C143.038 224.637 143.04 224.677 143.056 224.713C143.072 224.749 143.101 224.777 143.136 224.793C143.172 224.809 143.213 224.812 143.25 224.8C147.96 222.8 152.76 220.8 157.36 218.56C157.42 218.52 157.464 218.46 157.484 218.39C157.505 218.321 157.501 218.247 157.472 218.18C157.444 218.114 157.393 218.06 157.329 218.027C157.264 217.994 157.19 217.984 157.12 218Z" fill="#263238"/>
<path d="M150.54 210.17C151 207.36 151.38 204.54 151.62 201.71C152.109 196.432 152.052 191.117 151.45 185.85C151.442 185.82 151.424 185.794 151.4 185.776C151.376 185.757 151.346 185.747 151.315 185.747C151.284 185.747 151.255 185.757 151.23 185.776C151.206 185.794 151.188 185.82 151.18 185.85C151.299 193.172 150.871 200.492 149.9 207.75C149.37 211.24 147.61 216.49 151.26 217.02C154.91 217.55 157.38 208.78 157.83 206.37C158.992 199.517 159.258 192.542 158.62 185.62C158.62 185.45 158.32 185.42 158.32 185.62C158.32 190.877 158.057 196.13 157.53 201.36C157.31 203.79 155.36 217.2 151.15 216.22C150.45 216.05 150.09 215.36 149.98 214.3C149.998 212.912 150.186 211.532 150.54 210.19" fill="#263238"/>
<path d="M151.27 216.56C150.877 217.464 150.543 218.393 150.27 219.34C149.998 220.069 149.866 220.842 149.88 221.62C149.88 221.77 150.09 221.79 150.17 221.69C150.615 221.002 150.952 220.25 151.17 219.46C151.49 218.6 151.83 217.75 152.17 216.88C152.191 216.821 152.2 216.758 152.197 216.696C152.194 216.633 152.178 216.572 152.151 216.515C152.124 216.458 152.087 216.408 152.04 216.365C151.993 216.323 151.939 216.291 151.88 216.27C151.821 216.249 151.758 216.24 151.696 216.243C151.633 216.246 151.572 216.262 151.515 216.289C151.458 216.316 151.407 216.353 151.365 216.4C151.323 216.447 151.291 216.501 151.27 216.56Z" fill="#263238"/>
<path d="M136 81.74C127.3 89.2 129.72 100.08 126.09 105.99C123.86 109.6 116.62 113.41 115.18 117.57C112.82 124.4 118.61 126.86 117.31 130.57C115.48 135.84 108.43 135.43 107.16 144.04C105.89 152.65 115.37 161.81 137.85 164.29C160.33 166.77 172.69 158.54 173.49 151.23C174.29 143.92 166.82 141.49 166.31 136.04C165.99 132.55 170.6 130.13 170.84 123.71C171.08 117.29 164.84 115.21 163.92 109.76C163 104.31 165.92 91.07 157.92 84.31C149.92 77.55 140.33 78.05 136 81.74Z" fill="#263238"/>
<path d="M137 81.93C134.566 83.6568 132.583 85.9447 131.22 88.6C129.812 91.4125 128.734 94.379 128.01 97.44C127.628 99.2637 127.041 101.038 126.26 102.73C125.495 104.142 124.478 105.403 123.26 106.45C120.83 108.65 117.93 110.32 115.74 112.8C113.55 115.28 112.07 118.27 112.89 121.46C113.34 123.2 114.49 124.61 115.2 126.23C115.91 127.85 116.14 129.67 114.82 130.95C113.7 132.04 112.07 132.54 110.82 133.43C109.562 134.305 108.454 135.379 107.54 136.61C106.612 137.828 105.948 139.227 105.592 140.716C105.235 142.206 105.194 143.754 105.47 145.26C106.8 152.26 113.36 156.26 119.47 158.73L122.01 159.73C122.14 159.78 122.25 159.59 122.12 159.53C116.04 156.81 108.98 153.62 106.65 146.82C106.116 145.344 105.928 143.764 106.101 142.203C106.275 140.643 106.805 139.143 107.65 137.82C108.51 136.507 109.601 135.362 110.87 134.44C112.09 133.53 113.5 132.98 114.75 132.12C115.366 131.729 115.867 131.181 116.203 130.533C116.538 129.884 116.696 129.159 116.66 128.43C116.465 126.843 115.896 125.325 115 124C114.059 122.61 113.56 120.968 113.57 119.29C113.75 117.654 114.373 116.099 115.37 114.79C117.26 112.11 120.06 110.36 122.57 108.33C125.143 106.441 127.059 103.794 128.05 100.76C128.51 99.15 128.8 97.5 129.2 95.88C129.57 94.3767 130.02 92.8945 130.55 91.44C131.542 88.5114 133.164 85.8354 135.3 83.6C135.87 83.0346 136.493 82.5255 137.16 82.08C137.19 82 137.12 81.88 137 81.93Z" fill="#263238"/>
<path d="M174.52 145.87C174.253 144.684 173.734 143.569 173 142.6C172.22 141.6 171.27 140.77 170.4 139.86C169.52 139.051 168.882 138.012 168.56 136.86C168.421 135.451 168.774 134.038 169.56 132.86C170.315 131.601 170.984 130.291 171.56 128.94C172.056 127.595 172.343 126.182 172.41 124.75C172.534 121.797 171.745 118.878 170.15 116.39C169.38 115.13 168.52 113.94 167.75 112.69C166.889 111.33 166.216 109.86 165.75 108.32C164.75 104.94 164.52 101.32 163.69 97.94C162.819 94.3915 161.583 90.943 160 87.65C160 87.57 159.84 87.65 159.88 87.72C161.263 90.6708 162.335 93.7574 163.08 96.93C163.79 99.93 164.08 103.01 164.6 106.05C164.833 107.544 165.215 109.012 165.74 110.43C166.292 111.741 166.961 113 167.74 114.19C169.26 116.67 170.83 119.11 171.25 122.05C171.668 124.939 171.161 127.887 169.8 130.47C168.62 132.7 166.96 135.16 167.99 137.78C168.87 140 170.99 141.33 172.38 143.16C173.121 144.171 173.64 145.327 173.903 146.552C174.167 147.777 174.169 149.044 173.91 150.27C172.69 156.56 166.39 159.69 160.48 160C160.448 160.008 160.42 160.027 160.399 160.054C160.379 160.08 160.368 160.112 160.368 160.145C160.368 160.178 160.379 160.21 160.399 160.236C160.42 160.263 160.448 160.282 160.48 160.29C165.61 160.23 171.2 157.97 173.61 153.16C174.749 150.909 175.07 148.332 174.52 145.87Z" fill="#263238"/>
<path d="M149 135.62C152.2 144.06 167.2 174.84 178.46 177.25C191.05 179.94 215.46 170.25 231.16 163.49C236.8 161.05 223.04 141.59 216.84 139.32C213.12 137.95 187.23 151.32 181.5 151.32C178.27 151.32 170.99 139.43 156.59 128.21C148.71 122 144.7 124.27 149 135.62Z" fill="#DD6A57"/>
<path d="M227.19 164.66C230.56 163.66 249.58 158.17 253.41 155.66C257.24 153.15 267.71 144.91 266.04 141.78C264.37 138.65 261.12 140.78 261.12 140.78C261.12 140.78 265 136.6 263 133.6C261 130.6 256.07 134.12 256.07 134.12C256.07 134.12 259.74 129.56 257.57 126.71C255.4 123.86 251 128.23 251 128.23C251 128.23 254.55 124.23 251.77 122.62C248.43 120.71 242.72 128.84 238.28 131.35C237.28 131.92 217.04 141.48 217.04 141.48L227.19 164.66Z" fill="#DD6A57"/>
<path d="M251.41 127.86C247.2 133.86 244.33 135.71 237.68 138.47C237.55 138.52 237.61 138.73 237.75 138.68C244.5 136.58 248.44 134.74 251.75 128.05C251.87 127.72 251.62 127.58 251.41 127.86Z" fill="#263238"/>
<path d="M256.43 133.64C251.51 139.46 248.43 141.53 241.67 144.92C241.57 144.97 241.67 145.14 241.74 145.1C248.64 142.32 252.54 140.39 256.68 133.93C256.87 133.64 256.65 133.37 256.43 133.64Z" fill="#263238"/>
<path d="M260.77 140.92C255.6 146.21 252.3 148.62 245.33 151.08C245.313 151.085 245.297 151.093 245.283 151.103C245.269 151.114 245.257 151.128 245.248 151.143C245.231 151.174 245.226 151.211 245.235 151.245C245.244 151.279 245.267 151.309 245.298 151.327C245.329 151.345 245.366 151.349 245.4 151.34C252.76 149.53 256.9 146.54 260.91 141.09C261.19 140.72 261.09 140.58 260.77 140.92Z" fill="#263238"/>
<path d="M211.18 141C211.18 141 216.7 132.69 219.91 130.1C223.12 127.51 238.61 122.28 239.91 125.56C241.61 129.8 233.27 134.56 228.91 136.39C228.91 136.39 232.91 146.19 227.62 150.92C222.33 155.65 211.18 141 211.18 141Z" fill="#DD6A57"/>
<path d="M240 126.85C238.77 131.85 232.85 133.85 228.72 135.91C228.658 135.937 228.603 135.98 228.56 136.033C228.518 136.086 228.489 136.149 228.476 136.216C228.463 136.283 228.467 136.352 228.487 136.417C228.507 136.482 228.542 136.542 228.59 136.59C229.97 140.81 230.7 147.16 227.88 150.91C227.869 150.932 227.866 150.956 227.871 150.98C227.876 151.004 227.888 151.026 227.906 151.042C227.924 151.057 227.947 151.067 227.972 151.069C227.996 151.07 228.02 151.064 228.04 151.05C231.61 147.45 231.4 141.15 229.59 136.62C233.86 134.56 239.71 132.29 240.05 126.86L240 126.85Z" fill="#263238"/>
<path d="M172.28 179.56L179.08 148.84C172.228 141.25 164.956 134.049 157.3 127.27C146.25 117.72 140.99 118.74 147.61 135.75C154.23 152.76 164 172.46 172.28 179.56Z" fill="#0284B2"/>
<path d="M172.28 179.56L179.08 148.84C172.228 141.25 164.956 134.049 157.3 127.27C146.25 117.72 140.99 118.74 147.61 135.75C154.23 152.76 164 172.46 172.28 179.56Z" fill="#0284B2"/>
<path d="M175.23 148.18C174.06 152.38 173.05 156.59 172.17 160.86C171.73 163 171.32 165.15 170.94 167.31C170.55 169.5 170.31 171.72 169.94 173.93C169.94 174.03 170.08 174.05 170.1 173.93C170.9 169.63 171.85 165.34 172.73 161.04L175.34 148.2C175.4 148.13 175.26 148.09 175.23 148.18Z" fill="#263238"/>
<path d="M150 140.58C150.291 141.257 150.49 141.97 150.59 142.7C150.59 142.82 150.59 142.94 150.59 143.07C150.37 142.51 150.14 141.97 149.91 141.42C149.916 141.138 149.946 140.857 150 140.58ZM168.28 138.7C168.114 140.159 168.324 141.635 168.89 142.99C168.995 142.264 168.995 141.526 168.89 140.8C168.769 140.073 168.547 139.366 168.23 138.7H168.28ZM162.1 160.7C161.995 161.423 161.995 162.157 162.1 162.88C162.198 163.607 162.397 164.317 162.69 164.99C162.8 164.264 162.8 163.526 162.69 162.8C162.58 162.073 162.364 161.365 162.05 160.7H162.1ZM167.88 153.86C169.339 154.039 170.819 153.829 172.17 153.25C171.444 153.145 170.706 153.145 169.98 153.25C169.237 153.346 168.513 153.551 167.83 153.86H167.88ZM145.41 125.11C146.137 125.21 146.874 125.21 147.6 125.11C148.327 125.018 149.038 124.823 149.71 124.53C148.984 124.425 148.246 124.425 147.52 124.53C146.777 124.623 146.05 124.818 145.36 125.11H145.41ZM155.41 153.63C155.403 153.649 155.403 153.671 155.41 153.69C155.434 153.645 155.454 153.598 155.47 153.55C155.432 153.57 155.398 153.598 155.37 153.63H155.41ZM174 164.53C173.419 164.979 172.904 165.508 172.47 166.1C172.023 166.678 171.663 167.318 171.4 168C171.98 167.557 172.492 167.031 172.92 166.44C173.368 165.857 173.732 165.214 174 164.53ZM162.64 148.38C162.192 147.802 161.667 147.287 161.08 146.85C160.497 146.405 159.854 146.045 159.17 145.78C160.088 146.926 161.282 147.821 162.64 148.38ZM158.49 132.16C157.906 132.605 157.388 133.13 156.95 133.72C156.502 134.299 156.138 134.939 155.87 135.62C157.025 134.709 157.927 133.518 158.49 132.16Z" fill="white"/>
<path d="M147.61 135.75C154.23 152.75 163.96 172.46 172.28 179.56L175.08 166.91L145.23 122.18C144.1 124 144.72 128.34 147.61 135.75Z" fill="#263238"/>
<path d="M166.72 187.05C166.72 187.05 145.48 192.05 105.25 188.6C105.25 188.6 120.98 138.39 133.65 124.85C139.42 118.69 145.05 119.63 149.83 123.6C151.02 124.6 165.83 143.33 167.04 149.87C168.15 155.64 163.46 162.05 163.46 162.05L166.72 187.05Z" fill="#0284B2"/>
<path d="M150.54 142.7C150.645 143.423 150.645 144.157 150.54 144.88C150.246 144.212 150.051 143.504 149.96 142.78C149.85 142.054 149.85 141.316 149.96 140.59C150.25 141.263 150.445 141.973 150.54 142.7ZM150.91 176.61C150.81 177.337 150.81 178.073 150.91 178.8C151 179.529 151.199 180.24 151.5 180.91C151.6 180.183 151.6 179.447 151.5 178.72C151.404 177.992 151.206 177.282 150.91 176.61ZM161.34 183.12C161.161 184.579 161.371 186.059 161.95 187.41C162.05 186.683 162.05 185.947 161.95 185.22C161.849 184.494 161.644 183.787 161.34 183.12ZM127.56 153.37C127.45 154.096 127.45 154.834 127.56 155.56C127.651 156.284 127.846 156.992 128.14 157.66C128.245 156.937 128.245 156.203 128.14 155.48C128.044 154.753 127.849 154.043 127.56 153.37ZM162.05 160.7C161.945 161.423 161.945 162.157 162.05 162.88C162.148 163.607 162.346 164.317 162.64 164.99C162.75 164.264 162.75 163.526 162.64 162.8C162.546 162.075 162.347 161.368 162.05 160.7ZM137.17 147.44C137.896 147.545 138.634 147.545 139.36 147.44C140.087 147.348 140.798 147.153 141.47 146.86C140.744 146.755 140.006 146.755 139.28 146.86C138.553 146.956 137.843 147.151 137.17 147.44ZM124.65 168.69C126.112 168.87 127.596 168.66 128.95 168.08C128.224 167.975 127.486 167.975 126.76 168.08C126.031 168.182 125.321 168.387 124.65 168.69ZM145.5 167C146.226 167.1 146.963 167.1 147.69 167C148.417 166.908 149.128 166.713 149.8 166.42C149.074 166.315 148.336 166.315 147.61 166.42C146.883 166.512 146.172 166.708 145.5 167ZM107.68 186.53C108.403 186.63 109.137 186.63 109.86 186.53C110.588 186.44 111.299 186.245 111.97 185.95C110.511 185.771 109.031 185.981 107.68 186.56V186.53ZM145.36 125.16C146.086 125.26 146.823 125.26 147.55 125.16C148.277 125.068 148.988 124.873 149.66 124.58C148.934 124.475 148.196 124.475 147.47 124.58C146.746 124.661 146.036 124.839 145.36 125.11V125.16ZM138.28 129C137.699 129.446 137.184 129.971 136.75 130.56C136.303 131.142 135.942 131.785 135.68 132.47C136.258 132.021 136.77 131.492 137.2 130.9C137.65 130.322 138.014 129.682 138.28 129ZM119.28 156.13C118.697 156.573 118.181 157.098 117.75 157.69C117.3 158.271 116.936 158.915 116.67 159.6C117.823 158.686 118.721 157.491 119.28 156.13ZM155.42 153.6C154.837 154.043 154.321 154.568 153.89 155.16C153.44 155.741 153.076 156.385 152.81 157.07C153.963 156.156 154.861 154.961 155.42 153.6ZM137.35 173.82C136.771 174.268 136.257 174.793 135.82 175.38C135.375 175.963 135.015 176.606 134.75 177.29C135.331 176.841 135.846 176.312 136.28 175.72C136.745 175.132 137.119 174.478 137.39 173.78L137.35 173.82ZM157.35 133.22L156.91 133.76C156.46 134.338 156.096 134.978 155.83 135.66C156.416 135.216 156.931 134.687 157.36 134.09C157.46 133.95 157.55 133.81 157.66 133.67L157.35 133.22ZM162.6 148.42C162.152 147.842 161.627 147.327 161.04 146.89C160.457 146.445 159.814 146.085 159.13 145.82C160.048 146.966 161.242 147.861 162.6 148.42ZM116.6 173.63C116.151 173.049 115.622 172.534 115.03 172.1C114.452 171.65 113.812 171.286 113.13 171.02C113.573 171.603 114.098 172.119 114.69 172.55C115.293 172.985 115.952 173.335 116.65 173.59L116.6 173.63ZM163.6 174.42C162.692 173.261 161.495 172.361 160.13 171.81C160.574 172.396 161.103 172.912 161.7 173.34C162.286 173.778 162.933 174.128 163.62 174.38L163.6 174.42ZM131.18 143C130.728 142.421 130.2 141.907 129.61 141.47C129.032 141.023 128.392 140.662 127.71 140.4C128.153 140.98 128.679 141.492 129.27 141.92C129.852 142.368 130.495 142.732 131.18 143ZM144.52 188C143.602 186.854 142.408 185.959 141.05 185.4C141.493 185.983 142.018 186.499 142.61 186.93C143.193 187.375 143.836 187.735 144.52 188ZM140.52 160.34C140.093 159.754 139.58 159.235 139 158.8C138.419 158.35 137.775 157.986 137.09 157.72C138.004 158.873 139.199 159.772 140.56 160.33L140.52 160.34ZM125.43 182.56C124.522 181.405 123.33 180.505 121.97 179.95C122.413 180.533 122.938 181.049 123.53 181.48C124.119 181.927 124.769 182.287 125.46 182.55L125.43 182.56Z" fill="white"/>
<path d="M159.34 136.05C160.633 137.788 161.831 139.594 162.93 141.46C162.48 140.41 162.05 139.35 161.68 138.26H161.75C162.14 139.03 162.54 139.79 162.86 140.59C163.18 141.39 163.43 142.03 163.7 142.75C164.95 144.95 166.41 147.17 167.04 149.64C167.569 151.869 167.521 154.195 166.9 156.4C166.576 157.536 166.133 158.636 165.58 159.68C165.142 160.628 164.558 161.502 163.85 162.27C164.26 164.58 164.53 166.93 164.85 169.27C165.226 171.54 165.463 173.831 165.56 176.13C165.56 176.162 165.547 176.192 165.525 176.215C165.502 176.237 165.472 176.25 165.44 176.25C165.408 176.25 165.378 176.237 165.355 176.215C165.333 176.192 165.32 176.162 165.32 176.13L165.17 175.65C165.162 175.638 165.157 175.624 165.157 175.61C165.157 175.596 165.162 175.582 165.17 175.57C164.727 173.445 164.393 171.299 164.17 169.14C163.87 166.92 163.31 162.3 163.3 162.28C163.29 162.26 164.36 160.34 164.77 159.46C165.28 158.387 165.688 157.269 165.99 156.12C166.631 153.959 166.679 151.666 166.13 149.48C165.349 147.144 164.302 144.906 163.01 142.81C161.76 140.57 160.47 138.35 159.18 136.13C159.14 136.07 159.28 136 159.34 136.05Z" fill="#263238"/>
<path d="M130.3 128.28C119.8 142.5 99.7401 176.14 106.47 183.55C117.54 195.73 144.16 206.03 152.47 208.29C156.05 209.29 168.03 183.09 164.63 181.06C160.55 178.61 132.04 169.89 132.12 167.47C132.12 166.09 135.12 154.55 137.57 139.75C140.38 122.58 135.31 121.51 130.3 128.28Z" fill="#DD6A57"/>
<path d="M153.94 178.76C153.94 178.76 160.36 176.68 167.09 173.63C170.84 171.93 177.53 169.63 180.86 169.63C185.86 169.63 206.64 172.91 205.96 177.97C205.34 182.55 187.83 177.48 187.83 177.48C187.83 177.48 206 181 204.2 186.38C202.4 191.76 183.41 183.38 183.41 183.38C183.41 183.38 201.96 187.44 199.27 192.7C197.27 196.7 179.57 190.08 179.57 190.08C179.57 190.08 195.49 193.69 193.57 197.86C191.46 202.48 174.77 197.42 174.77 197.42C168.12 207.22 157.83 211.04 150.57 207.71C149.4 207.2 153.94 178.76 153.94 178.76Z" fill="#DD6A57"/>
<path d="M181.63 175.82C183.78 176.16 185.95 176.49 188.06 177.02C190.17 177.55 192.26 178.15 194.31 178.88C197.005 179.772 199.588 180.97 202.01 182.45C197.52 180.14 190.01 178.12 187.89 177.59C185.77 177.06 183.71 176.43 181.61 175.9C181.56 175.89 181.58 175.82 181.63 175.82Z" fill="#263238"/>
<path d="M179.58 183.4C182.3 183.95 185.02 184.4 187.72 185.07C190.42 185.74 192.89 186.61 195.52 187.46C195.72 187.53 195.62 187.62 195.42 187.56C192.75 186.81 190.23 186.33 187.56 185.61C184.89 184.89 182.25 184.08 179.56 183.46L179.58 183.4Z" fill="#263238"/>
<path d="M176.66 189.58C180.849 190.328 184.951 191.504 188.9 193.09C189.1 193.17 188.96 193.26 188.75 193.2C184.7 191.96 181.53 190.95 176.63 189.73C176.56 189.71 176.57 189.57 176.66 189.58Z" fill="#263238"/>
<path d="M171.07 172C172.139 171.364 173.264 170.825 174.43 170.39C175.505 169.94 176.611 169.569 177.74 169.28C180.185 168.657 182.733 168.555 185.22 168.98C191.182 169.952 196.993 171.69 202.51 174.15C202.6 174.15 202.57 174.37 202.51 174.34C197.83 173.08 192.72 171.08 185.57 170C183.123 169.573 180.618 169.597 178.18 170.07C176.929 170.359 175.694 170.713 174.48 171.13C173.39 171.48 172.32 171.96 171.21 172.21C171.182 172.229 171.148 172.235 171.115 172.229C171.082 172.222 171.053 172.203 171.035 172.175C171.016 172.147 171.01 172.113 171.016 172.08C171.023 172.047 171.042 172.019 171.07 172Z" fill="#263238"/>
<path d="M103.87 178.72L133 166.87C135.358 156.922 137.158 146.849 138.39 136.7C139.98 122.18 136.15 118.43 125.91 133.53C115.67 148.63 105 167.84 103.87 178.72Z" fill="#0284B2"/>
<path d="M127.38 132.91C127.234 132.589 127.12 132.254 127.04 131.91C127.167 131.723 127.297 131.543 127.43 131.37C127.48 131.883 127.464 132.401 127.38 132.91ZM127.56 153.37C127.45 154.096 127.45 154.834 127.56 155.56C127.651 156.284 127.846 156.992 128.14 157.66C128.245 156.937 128.245 156.203 128.14 155.48C128.044 154.753 127.849 154.043 127.56 153.37ZM124.65 168.69C126.112 168.87 127.596 168.66 128.95 168.08C128.224 167.975 127.486 167.975 126.76 168.08C126.031 168.182 125.321 168.387 124.65 168.69ZM118.38 145.35L118.02 145.94H118.34C119.067 145.849 119.778 145.654 120.45 145.36C119.764 145.252 119.066 145.248 118.38 145.35ZM138.28 129C137.699 129.446 137.184 129.971 136.75 130.56C136.303 131.142 135.942 131.785 135.68 132.47C136.258 132.021 136.77 131.492 137.2 130.9C137.65 130.322 138.014 129.682 138.28 129ZM119.28 156.13C118.697 156.573 118.181 157.098 117.75 157.69C117.3 158.271 116.936 158.915 116.67 159.6C117.823 158.686 118.721 157.491 119.28 156.13ZM116.61 173.63C116.161 173.049 115.632 172.534 115.04 172.1C114.462 171.65 113.822 171.286 113.14 171.02C113.583 171.603 114.108 172.119 114.7 172.55C115.3 172.984 115.956 173.334 116.65 173.59L116.61 173.63ZM131.18 143C130.728 142.421 130.2 141.907 129.61 141.47C129.032 141.023 128.392 140.662 127.71 140.4C128.153 140.98 128.679 141.492 129.27 141.92C129.852 142.368 130.495 142.732 131.18 143Z" fill="white"/>
<path d="M138.13 145.7C137.721 146.543 137.387 147.419 137.13 148.32C137.02 148.62 136.93 148.93 136.83 149.23C137.08 147.55 137.32 145.86 137.55 144.17C137.55 144.06 137.4 144.01 137.38 144.17C136.64 147.98 133.25 165.86 133.1 166.78C133.01 166.78 132.1 167.31 132.05 167.3C132 167.29 132.05 167.49 132.12 167.45C132.19 167.41 133.29 166.92 133.29 166.91C133.66 166.1 136.29 152.46 136.59 150.8C136.631 150.729 136.667 150.655 136.7 150.58C136.79 150.34 136.87 150.1 136.96 149.87C137.13 149.43 137.27 148.99 137.43 148.55C137.778 147.648 138.062 146.722 138.28 145.78C138.291 145.76 138.293 145.737 138.286 145.715C138.28 145.694 138.265 145.676 138.245 145.665C138.225 145.654 138.202 145.652 138.18 145.659C138.159 145.665 138.141 145.68 138.13 145.7Z" fill="#263238"/>
<path d="M132.48 163.59C131.325 163.859 130.187 164.193 129.07 164.59C127.94 164.95 126.8 165.28 125.67 165.65C123.5 166.36 121.35 167.13 119.2 167.93C114.88 169.48 110.641 171.249 106.5 173.23C106.41 173.23 106.5 173.42 106.57 173.39C110.96 171.85 115.28 170.11 119.64 168.48L126.08 166.09L129.29 164.87C130.36 164.48 131.51 164.17 132.53 163.68C132.59 163.66 132.54 163.58 132.48 163.59Z" fill="#263238"/>
<path d="M138.87 123.24C139.11 124.33 144.2 131.41 149.15 131.24C150.76 131.18 150.83 122.36 150.83 122.36L150.98 121.71L153.12 112.61L142.48 105.61L140.95 104.69C140.95 104.69 140.52 107.22 140.03 110.37C140.03 110.51 139.98 110.66 139.96 110.82C139.94 110.98 139.89 111.16 139.87 111.33C139.79 111.8 139.71 112.33 139.64 112.76C139.57 113.19 139.53 113.48 139.49 113.87C139.45 114.26 139.4 114.63 139.34 115.01C138.992 117.739 138.835 120.489 138.87 123.24Z" fill="#DD6A57"/>
<path d="M140 110.37C140.899 112.946 142.348 115.296 144.248 117.254C146.148 119.213 148.452 120.734 151 121.71L153.14 112.61L142.5 105.61L140.97 104.69C140.97 104.69 140.52 107.22 140 110.37Z" fill="#263238"/>
<path d="M166.27 98.22C168.37 114.49 158.87 117.59 155.36 118.04C152.17 118.45 141.28 119.44 137.5 103.47C133.72 87.5 140.62 81.39 147.85 80.06C155.08 78.73 164.16 82 166.27 98.22Z" fill="#DD6A57"/>
<path d="M163.61 95.71C163.231 95.6903 162.854 95.6503 162.48 95.59C162.077 95.609 161.679 95.4928 161.35 95.26C161.262 95.1655 161.208 95.045 161.195 94.9168C161.183 94.7886 161.213 94.6598 161.28 94.55C161.445 94.3524 161.66 94.2027 161.903 94.1165C162.146 94.0303 162.407 94.0108 162.66 94.06C163.189 94.0818 163.692 94.2992 164.07 94.67C164.152 94.7589 164.206 94.8697 164.226 94.9888C164.245 95.108 164.23 95.2303 164.181 95.3408C164.132 95.4513 164.052 95.5451 163.951 95.6107C163.849 95.6762 163.731 95.7108 163.61 95.71Z" fill="#263238"/>
<path d="M152.42 96.87C152.783 96.773 153.14 96.6561 153.49 96.52C153.877 96.4453 154.228 96.2449 154.49 95.95C154.558 95.8423 154.588 95.7148 154.576 95.5879C154.563 95.461 154.508 95.342 154.42 95.25C154.216 95.0899 153.973 94.9877 153.716 94.9543C153.459 94.9209 153.198 94.9574 152.96 95.06C152.45 95.1915 152.008 95.509 151.72 95.95C151.655 96.0566 151.623 96.1804 151.629 96.3052C151.635 96.4301 151.679 96.5501 151.755 96.6496C151.831 96.7491 151.935 96.8234 152.053 96.8627C152.172 96.902 152.3 96.9046 152.42 96.87Z" fill="#263238"/>
<path d="M155.43 100.6C155.43 100.6 155.35 100.66 155.36 100.71C155.54 101.81 155.56 103.1 154.61 103.6C154.61 103.6 154.61 103.67 154.61 103.66C155.82 103.33 155.78 101.61 155.43 100.6Z" fill="#263238"/>
<path d="M154.29 99.57C152.49 99.67 152.82 103.26 154.49 103.17C156.16 103.08 155.8 99.49 154.29 99.57Z" fill="#263238"/>
<path d="M153.6 99.83C153.31 100.06 153.03 100.44 152.66 100.52C152.29 100.6 151.86 100.25 151.54 99.92H151.48C151.54 100.6 151.87 101.29 152.61 101.32C153.35 101.35 153.72 100.7 153.83 99.99C153.85 99.91 153.72 99.73 153.6 99.83Z" fill="#263238"/>
<path d="M161.59 99.8C161.59 99.8 161.68 99.8 161.69 99.89C161.74 101.01 162 102.27 163.04 102.56V102.62C161.79 102.55 161.47 100.87 161.59 99.8Z" fill="#263238"/>
<path d="M162.49 98.55C164.27 98.27 164.71 101.85 163.06 102.11C161.41 102.37 161 98.79 162.49 98.55Z" fill="#263238"/>
<path d="M163.27 98.7C163.57 98.85 163.89 99.16 164.27 99.14C164.65 99.12 164.91 98.7 165.12 98.3C165.12 98.3 165.12 98.3 165.18 98.3C165.28 98.98 165.18 99.72 164.5 99.93C163.82 100.14 163.4 99.59 163.15 98.93C163.07 98.84 163.14 98.63 163.27 98.7Z" fill="#263238"/>
<path d="M156.14 109.74C156.42 109.99 156.7 110.34 157.14 110.35C157.552 110.325 157.955 110.213 158.32 110.02C158.32 110.02 158.4 110.02 158.38 110.02C158.23 110.246 158.022 110.428 157.777 110.546C157.532 110.664 157.261 110.714 156.99 110.69C156.76 110.642 156.549 110.527 156.384 110.36C156.218 110.193 156.106 109.981 156.06 109.75C156 109.73 156.1 109.71 156.14 109.74Z" fill="#263238"/>
<path d="M160.37 105.25C160.37 105.25 160.77 106.88 160.85 107.66C160.85 107.74 160.67 107.79 160.41 107.83C159.752 108.023 159.053 108.032 158.39 107.856C157.727 107.679 157.125 107.325 156.65 106.83C156.59 106.76 156.65 106.67 156.76 106.71C157.825 107.289 159.05 107.507 160.25 107.33C160.25 107.11 159.47 104.56 159.6 104.53C160.214 104.526 160.825 104.6 161.42 104.75C160.68 101.32 159.42 98.03 158.72 94.61C158.718 94.586 158.725 94.5622 158.738 94.5422C158.751 94.5222 158.771 94.507 158.793 94.4991C158.816 94.4912 158.841 94.4909 158.864 94.4983C158.886 94.5056 158.906 94.5203 158.92 94.54C160.4 98.0188 161.529 101.637 162.29 105.34C162.37 105.77 160.7 105.35 160.37 105.25Z" fill="#263238"/>
<path d="M139.05 103.89C141.69 103.8 141.67 98.24 141.67 98.24C141.67 98.24 146.99 97.66 147.88 89.81C147.99 92.1198 147.419 94.411 146.24 96.4C146.24 96.4 155.51 94.35 158.58 86.06C158.58 86.06 157.45 90.23 156.13 91.82C158.429 90.8257 160.322 89.0805 161.5 86.87C161.5 86.87 163.66 91.21 165.06 92.32C165.06 92.32 162.82 75.95 147.81 79.41C147.81 79.41 138.36 81.12 135.81 89.04C133.26 96.96 139.05 103.89 139.05 103.89Z" fill="#263238"/>
<path d="M153.06 106.93C152.108 106.937 151.173 106.677 150.361 106.18C149.55 105.682 148.894 104.967 148.468 104.116C148.043 103.264 147.865 102.31 147.954 101.362C148.043 100.415 148.397 99.5109 148.974 98.7539C149.551 97.9968 150.329 97.4169 151.219 97.0798C152.11 96.7428 153.077 96.6622 154.01 96.8472C154.944 97.0322 155.808 97.4753 156.502 98.1263C157.197 98.7774 157.695 99.6101 157.94 100.53C158.284 101.838 158.095 103.228 157.415 104.397C156.734 105.565 155.617 106.415 154.31 106.76C153.901 106.866 153.482 106.923 153.06 106.93ZM153 97.42C152.632 97.4229 152.266 97.4699 151.91 97.56C150.818 97.8412 149.875 98.5279 149.272 99.4804C148.669 100.433 148.452 101.579 148.665 102.686C148.877 103.793 149.504 104.777 150.417 105.438C151.33 106.099 152.461 106.387 153.579 106.244C154.697 106.1 155.719 105.536 156.435 104.666C157.151 103.795 157.509 102.685 157.435 101.56C157.362 100.435 156.862 99.3805 156.038 98.6114C155.213 97.8422 154.127 97.4162 153 97.42Z" fill="#0284B2"/>
<path d="M164.65 105.41C162.65 105.41 160.92 103.41 160.58 100.8C160.405 99.5442 160.625 98.2651 161.21 97.14C161.431 96.6399 161.778 96.2054 162.216 95.8788C162.655 95.5522 163.17 95.3446 163.713 95.2762C164.255 95.2077 164.806 95.2808 165.312 95.4882C165.818 95.6957 166.262 96.0304 166.6 96.46C167.446 97.4081 167.974 98.5969 168.11 99.86C168.46 102.64 167.06 105.12 164.98 105.38C164.871 105.4 164.761 105.41 164.65 105.41ZM164.05 95.93H163.8C163.371 96.0045 162.965 96.1803 162.617 96.443C162.27 96.7056 161.989 97.0474 161.8 97.44C161.285 98.444 161.096 99.5836 161.26 100.7C161.56 103.11 163.19 104.9 164.9 104.7C166.61 104.5 167.74 102.35 167.43 99.93C167.308 98.8164 166.843 97.7682 166.1 96.93C165.846 96.6307 165.533 96.3873 165.18 96.2152C164.827 96.043 164.442 95.9459 164.05 95.93Z" fill="#0284B2"/>
<path d="M157.85 101.14L157.35 100.68C158.03 99.94 159.7 98.85 161.1 100.01L160.66 100.54C159.41 99.49 157.91 101.07 157.85 101.14Z" fill="#0284B2"/>
<path d="M136.51 105.33L135.87 105.1C135.98 104.8 136.99 102.17 138.46 101.74C139.93 101.31 147.99 100.99 148.38 100.97V101.66C145.123 101.728 141.871 101.971 138.64 102.39C137.68 102.68 136.78 104.61 136.51 105.33Z" fill="#0284B2"/>
<path d="M138.25 109.48C138.496 109.564 138.751 109.617 139.01 109.64C139.268 109.68 139.532 109.68 139.79 109.64C140.122 109.594 140.44 109.474 140.72 109.29C140.943 109.153 141.145 108.985 141.32 108.79C141.571 108.494 141.767 108.155 141.9 107.79L140.81 103.45C140.81 103.45 137.01 98.45 134.75 99.86C132.49 101.27 135.48 108.58 138.25 109.48Z" fill="#DD6A57"/>
<path d="M135.65 102V102.07C137.65 102.77 138.65 104.5 139.46 106.3C139.34 106.114 139.181 105.956 138.994 105.838C138.808 105.719 138.597 105.641 138.378 105.611C138.159 105.581 137.936 105.598 137.724 105.662C137.512 105.725 137.316 105.834 137.15 105.98C137.15 105.98 137.15 106.1 137.21 106.08C137.541 105.957 137.903 105.941 138.243 106.035C138.584 106.128 138.887 106.326 139.11 106.6C139.494 107.057 139.829 107.553 140.11 108.08C140.21 108.25 140.52 108.14 140.44 107.95C140.32 105.43 138.28 102.11 135.65 102Z" fill="#263238"/>
<path d="M138.44 108.78C138.476 108.926 138.554 109.058 138.665 109.159C138.776 109.261 138.914 109.327 139.062 109.35C139.211 109.373 139.363 109.351 139.499 109.288C139.635 109.225 139.749 109.122 139.827 108.994C139.905 108.866 139.944 108.717 139.937 108.567C139.931 108.417 139.881 108.272 139.792 108.151C139.704 108.03 139.581 107.937 139.44 107.885C139.299 107.834 139.146 107.825 139 107.86C138.805 107.91 138.637 108.034 138.532 108.206C138.428 108.378 138.395 108.584 138.44 108.78Z" fill="white"/>
<path d="M136.83 107.7C136.868 107.836 136.956 107.952 137.077 108.025C137.198 108.097 137.342 108.121 137.48 108.09C137.619 108.057 137.74 107.97 137.815 107.848C137.89 107.726 137.913 107.579 137.88 107.44C137.864 107.371 137.834 107.307 137.792 107.25C137.75 107.193 137.698 107.145 137.637 107.108C137.577 107.072 137.509 107.048 137.439 107.038C137.37 107.028 137.298 107.032 137.23 107.05C137.091 107.083 136.971 107.17 136.896 107.292C136.821 107.414 136.797 107.561 136.83 107.7Z" fill="white"/>
<path d="M150.85 123.06L148.4 130.5L138.8 121.9L136.43 125C136.43 125 146.19 139 146.2 138.36L148.79 131.91L153.39 135.99L152.33 125.09L150.85 123.06Z" fill="#EBEBEB"/>
<path d="M153.17 130.58C152.94 128.78 152.75 126.97 152.43 125.19C152.43 125.13 152.32 125.1 152.31 125.19C152.06 126.95 152.99 133.81 153.09 135.46C152.9 135.29 148.84 131.89 148.81 131.95C148.22 132.95 146.32 137.68 146.2 138.11C144.66 135.88 138.77 127.8 136.98 125.72C136.92 125.66 136.83 125.72 136.87 125.79C138.26 128.15 146.07 139.04 146.17 139C147.193 136.781 148.094 134.507 148.87 132.19C149.57 132.94 153.69 136.8 153.69 136.53C153.623 134.539 153.449 132.553 153.17 130.58Z" fill="#263238"/>
<path d="M339.79 139.45H224.13V287.93H339.79V139.45Z" fill="#EBEBEB"/>
<path d="M339.79 287.93L282.05 288.13L224.13 288.24H223.81V287.92L223.64 139.44V139H224.13L339.79 139.12H340.17V139.49L340 213.79L339.79 287.93ZM339.79 287.93L339.54 213.59L339.42 139.45L339.79 139.83L224.13 139.94L224.62 139.45L224.44 287.93L224.13 287.61L281.88 287.73L339.79 287.93Z" fill="#DBDBDB"/>
<path d="M236.78 171.19L281.96 171.07L327.14 171.19L281.96 171.3L236.78 171.19Z" fill="#C7C7C7"/>
<path d="M236.78 174.87L281.96 174.76L327.14 174.87L281.96 174.99L236.78 174.87Z" fill="#C7C7C7"/>
<path d="M236.78 178.56L281.96 178.44L327.14 178.56L281.96 178.67L236.78 178.56Z" fill="#C7C7C7"/>
<path d="M236.78 182.24L281.96 182.13L327.14 182.24L281.96 182.35L236.78 182.24Z" fill="#C7C7C7"/>
<path d="M236.78 185.93L281.96 185.81L327.14 185.93L281.96 186.04L236.78 185.93Z" fill="#C7C7C7"/>
<path d="M236.78 189.61L281.96 189.5L327.14 189.61L281.96 189.72L236.78 189.61Z" fill="#C7C7C7"/>
<path d="M236.78 193.29L281.96 193.18L327.14 193.29L281.96 193.41L236.78 193.29Z" fill="#C7C7C7"/>
<path d="M236.78 196.98L281.96 196.87L327.14 196.98L281.96 197.09L236.78 196.98Z" fill="#C7C7C7"/>
<path d="M236.78 200.66L281.96 200.55L327.14 200.66L281.96 200.78L236.78 200.66Z" fill="#C7C7C7"/>
<path d="M236.78 204.35L281.96 204.23L327.14 204.35L281.96 204.46L236.78 204.35Z" fill="#C7C7C7"/>
<path d="M236.78 208.03L281.96 207.92L327.14 208.03L281.96 208.15L236.78 208.03Z" fill="#C7C7C7"/>
<path d="M236.78 211.72L281.96 211.6L327.14 211.72L281.96 211.83L236.78 211.72Z" fill="#C7C7C7"/>
<path d="M236.78 215.4L281.96 215.29L327.14 215.4L281.96 215.52L236.78 215.4Z" fill="#C7C7C7"/>
<path d="M236.78 219.09L281.96 218.97L327.14 219.09L281.96 219.2L236.78 219.09Z" fill="#C7C7C7"/>
<path d="M236.78 222.77L281.96 222.66L327.14 222.77L281.96 222.89L236.78 222.77Z" fill="#C7C7C7"/>
<path d="M253.19 211.6H246.34V227.06H253.19V211.6Z" fill="#0284B2"/>
<path d="M265.9 203.35H259.05V227.06H265.9V203.35Z" fill="#0284B2"/>
<path d="M278.61 194.12H271.76V227.07H278.61V194.12Z" fill="#0284B2"/>
<path d="M291.32 190.16H284.47V227.07H291.32V190.16Z" fill="#0284B2"/>
<path d="M304.03 183.09H297.18V227.07H304.03V183.09Z" fill="#0284B2"/>
<path d="M316.74 176.1H309.89V227.06H316.74V176.1Z" fill="#0284B2"/>
<path d="M239.23 168.6L239.41 183.22L239.53 197.83C239.62 207.58 239.64 217.32 239.66 227.07L239.23 226.64H261.23L283.23 226.69L305.23 226.83L327.23 227.08L305.23 227.33L283.23 227.47H261.23H239.23H238.81V227.05C238.81 217.303 238.85 207.557 238.93 197.81L239.06 183.2L239.23 168.6Z" fill="#C7C7C7"/>
<path d="M253.19 230.16H246.34V230.78H253.19V230.16Z" fill="#C7C7C7"/>
<path d="M265.9 230.16H259.05V230.78H265.9V230.16Z" fill="#C7C7C7"/>
<path d="M278.61 230.16H271.76V230.78H278.61V230.16Z" fill="#C7C7C7"/>
<path d="M291.32 230.16H284.47V230.78H291.32V230.16Z" fill="#C7C7C7"/>
<path d="M304.03 230.16H297.18V230.78H304.03V230.16Z" fill="#C7C7C7"/>
<path d="M316.74 230.16H309.89V230.78H316.74V230.16Z" fill="#C7C7C7"/>
<path d="M247.11 213.55C250.455 213.5 253.794 213.249 257.11 212.8C260.435 212.366 263.736 211.766 267 211C273.51 209.532 279.827 207.306 285.82 204.37C291.829 201.475 297.374 197.7 302.27 193.17L303.2 192.33L304.08 191.44L305.82 189.65C306.9 188.38 308.06 187.17 309.04 185.82C311.115 183.192 312.994 180.415 314.66 177.51H314.71C310.158 186.598 303.377 194.384 295 200.14C292.227 202.065 289.312 203.776 286.28 205.26C274.083 211.091 260.673 213.932 247.16 213.55H247.11Z" fill="#263238"/>
<path d="M316.58 182.3L315.63 182.54L314.46 177.86L309.88 179.37L309.58 178.44L315.16 176.61L316.58 182.3Z" fill="#263238"/>
<path d="M234.85 253.86H329.07V250.05H234.85V253.86Z" fill="#DBDBDB"/>
<path d="M234.85 263.49H287.9V259.68H234.85V263.49Z" fill="#DBDBDB"/>
<path d="M255.43 159.67H308.48V155.86H255.43V159.67Z" fill="#DBDBDB"/>
<path d="M317.93 324.13L204.63 347.41L174.75 201.97L258.87 184.69L293.74 206.41L317.93 324.13Z" fill="#0284B2"/>
<path opacity="0.8" d="M317.93 324.13L204.63 347.41L174.75 201.97L258.87 184.69L293.74 206.41L317.93 324.13Z" fill="white"/>
<path d="M258.87 184.69L293.74 206.41L264.56 212.4L258.87 184.69Z" fill="#0284B2"/>
<path d="M191.579 227.834L254.574 214.892L253.807 211.159L190.813 224.102L191.579 227.834Z" fill="#DBDBDB"/>
<path d="M193.511 237.257L256.506 224.315L255.739 220.583L192.745 233.525L193.511 237.257Z" fill="#DBDBDB"/>
<path d="M195.463 246.679L258.458 233.736L257.691 230.004L194.697 242.947L195.463 246.679Z" fill="#DBDBDB"/>
<path d="M197.399 256.107L289.691 237.145L288.924 233.413L196.632 252.375L197.399 256.107Z" fill="#DBDBDB"/>
<path d="M199.516 265.036L291.852 246.192L291.09 242.458L198.754 261.302L199.516 265.036Z" fill="#DBDBDB"/>
<path d="M201.272 274.954L293.564 255.992L292.798 252.26L200.505 271.222L201.272 274.954Z" fill="#DBDBDB"/>
<path d="M203.216 284.385L295.508 265.423L294.742 261.691L202.449 280.653L203.216 284.385Z" fill="#DBDBDB"/>
<path d="M205.148 293.808L297.44 274.847L296.674 271.115L204.381 290.076L205.148 293.808Z" fill="#DBDBDB"/>
<path d="M207.082 303.242L299.374 284.28L298.607 280.548L206.315 299.509L207.082 303.242Z" fill="#DBDBDB"/>
<path d="M209.014 312.665L301.306 293.703L300.539 289.971L208.247 308.933L209.014 312.665Z" fill="#DBDBDB"/>
<path d="M210.966 322.086L303.258 303.125L302.491 299.392L210.199 318.354L210.966 322.086Z" fill="#DBDBDB"/>
<path d="M212.899 331.519L305.191 312.558L304.425 308.826L212.132 327.787L212.899 331.519Z" fill="#DBDBDB"/>
<path d="M550.25 218.42L423.34 227.66C408.89 172.72 424.34 117.78 413.11 62.84L540 53.6C554.46 108.54 539 163.48 550.25 218.42Z" fill="#EBEBEB"/>
<path d="M550.25 218.42L423.42 228H423.12C423.087 227.898 423.061 227.795 423.04 227.69C408.51 172.76 423.93 117.82 412.62 62.88C412.62 62.72 412.55 62.55 412.51 62.39H413.01L539.92 53.3H540.27C540.297 53.4183 540.33 53.5351 540.37 53.65C554.7 108.52 539.09 163.47 550.25 218.42ZM550.25 218.42C538.85 163.49 554.25 108.56 539.67 53.63L540.11 53.95L413.21 63.34L413.6 62.8C424.81 117.8 409.26 172.69 423.6 227.64L423.21 227.35L550.25 218.42Z" fill="#DBDBDB"/>
<path d="M428.43 86.38L499.68 81.25C499.84 82.6567 499.98 84.0667 500.1 85.48L428.76 90.62C428.66 89.2 428.55 87.79 428.43 86.38Z" fill="#DBDBDB"/>
<path d="M429.14 97.07L500.61 91.93C500.697 93.3367 500.777 94.7467 500.85 96.16L429.31 101.3C429.26 99.89 429.2 98.48 429.14 97.07Z" fill="#DBDBDB"/>
<path d="M429.47 107.75L501.11 102.61C501.11 104.02 501.18 105.43 501.21 106.84L429.51 112C429.51 110.57 429.49 109.16 429.47 107.75Z" fill="#DBDBDB"/>
<path d="M429.51 118.43L534.64 110.91C534.64 112.32 534.64 113.73 534.64 115.14L429.45 122.66C429.49 121.25 429.51 119.84 429.51 118.43Z" fill="#DBDBDB"/>
<path d="M429.37 129.11L534.63 121.59L534.57 125.82L429.28 133.35L429.37 129.11Z" fill="#DBDBDB"/>
<path d="M429.12 139.8L534.44 132.27C534.44 133.68 534.38 135.09 534.34 136.5L429 144C429.05 142.62 429.09 141.21 429.12 139.8Z" fill="#DBDBDB"/>
<path d="M428.87 150.48L534.18 143C534.18 144.41 534.12 145.83 534.08 147.24L428.79 154.76C428.82 153.3 428.84 151.89 428.87 150.48Z" fill="#DBDBDB"/>
<path d="M428.71 161.16L534 153.64C534 155.05 533.95 156.46 533.93 157.87L428.73 165.39C428.69 164 428.69 162.57 428.71 161.16Z" fill="#DBDBDB"/>
<path d="M428.72 171.84L533.82 164.32C533.82 165.73 533.82 167.14 533.82 168.55L428.82 176.08C428.76 174.67 428.74 173.26 428.72 171.84Z" fill="#DBDBDB"/>
<path d="M429 182.53L533.91 175C533.91 176.41 533.97 177.82 534.02 179.24L429.21 186.76C429.13 185.353 429.06 183.943 429 182.53Z" fill="#DBDBDB"/>
<path d="M429.65 193.21L534.29 185.68C534.36 187.1 534.45 188.51 534.54 189.92L430 197.44C429.88 196 429.76 194.62 429.65 193.21Z" fill="#DBDBDB"/>
<path d="M430.75 203.89L535.06 196.37C535.19 197.78 535.33 199.19 535.49 200.6L431.33 208.13C431.12 206.72 430.93 205.3 430.75 203.89Z" fill="#DBDBDB"/>
<path d="M532.2 277.23C488.44 269.81 445.177 262.4 402.41 255C408 200.71 435.4 146.46 434 92.21C477.76 99.63 521.023 107.05 563.79 114.47C558.24 168.72 530.8 223 532.2 277.23Z" fill="#0284B2"/>
<path opacity="0.8" d="M532.2 277.23C488.44 269.81 445.177 262.4 402.41 255C408 200.71 435.4 146.46 434 92.21C477.76 99.63 521.023 107.05 563.79 114.47C558.24 168.72 530.8 223 532.2 277.23Z" fill="white"/>
<path d="M444.76 118.36C468.48 122.487 492.09 126.613 515.59 130.74C515.35 132.14 515.1 133.53 514.84 134.92C491.387 130.8 467.843 126.673 444.21 122.54C444.41 121.15 444.59 119.76 444.76 118.36Z" fill="#DBDBDB"/>
<path d="M443.24 128.91C466.766 133.037 490.21 137.163 513.57 141.29C513.27 142.69 512.97 144.08 512.66 145.47C489.36 141.35 465.976 137.223 442.51 133.09C442.76 131.7 443 130.31 443.24 128.91Z" fill="#DBDBDB"/>
<path d="M441.28 139.46L511.2 151.84C510.86 153.23 510.53 154.63 510.2 156.02C487 151.887 463.74 147.76 440.42 143.64C440.7 142.25 441 140.86 441.28 139.46Z" fill="#DBDBDB"/>
<path d="M439 150C473.08 156.053 507.047 162.1 540.9 168.14C540.53 169.53 540.15 170.92 539.77 172.32C505.923 166.28 472 160.237 438 154.19C438.3 152.8 438.63 151.41 439 150Z" fill="#DBDBDB"/>
<path d="M436.37 160.56C470.317 166.613 504.193 172.66 538 178.7C537.62 180.09 537.24 181.48 536.85 182.88L435.29 164.74C435.65 163.35 436 162 436.37 160.56Z" fill="#DBDBDB"/>
<path d="M433.59 171.11L535.08 189.25C534.7 190.64 534.31 192.03 533.93 193.43L432.46 175.29C432.84 173.9 433.22 172.5 433.59 171.11Z" fill="#DBDBDB"/>
<path d="M430.71 181.66L532.21 199.8C531.83 201.19 531.46 202.58 531.09 203.97C497.197 197.93 463.35 191.887 429.55 185.84C429.94 184.45 430.32 183.05 430.71 181.66Z" fill="#DBDBDB"/>
<path d="M427.8 192.21C461.627 198.25 495.51 204.293 529.45 210.34C529.1 211.74 528.75 213.13 528.45 214.52C494.45 208.48 460.53 202.437 426.69 196.39C427 195 427.41 193.6 427.8 192.21Z" fill="#DBDBDB"/>
<path d="M425 202.76C458.88 208.8 492.86 214.843 526.94 220.89C526.62 222.29 526.31 223.68 526 225.07C491.84 219.03 457.807 212.987 423.9 206.94C424.21 205.54 424.58 204.15 425 202.76Z" fill="#DBDBDB"/>
<path d="M422.24 213.31C456.24 219.35 490.367 225.393 524.62 231.44C524.34 232.84 524.08 234.23 523.82 235.62C489.44 229.58 455.24 223.537 421.22 217.49C421.55 216.09 421.89 214.7 422.24 213.31Z" fill="#DBDBDB"/>
<path d="M419.75 223.85C453.897 229.903 488.23 235.95 522.75 241.99C522.52 243.38 522.31 244.78 522.11 246.17C487.47 240.13 453.05 234.073 418.85 228C419.14 226.64 419.44 225.25 419.75 223.85Z" fill="#DBDBDB"/>
<path d="M417.57 234.4C451.923 240.447 486.487 246.493 521.26 252.54C521.1 253.93 520.96 255.33 520.83 256.72C485.897 250.667 451.23 244.62 416.83 238.58C417.06 237.19 417.31 235.8 417.57 234.4Z" fill="#DBDBDB"/>
<path d="M479.26 254.99H254.97V417.57H479.26V254.99Z" fill="#0284B2"/>
<path d="M334.22 238.15H254.97V254.99H338.77L334.22 238.15Z" fill="#0284B2"/>
<g opacity="0.1">
<path d="M479.26 254.99H254.97V417.57H479.26V254.99Z" fill="black"/>
<path d="M334.22 238.15H254.97V254.99H338.77L334.22 238.15Z" fill="black"/>
</g>
<path d="M477.73 356.73C433.94 344.2 391.13 331.82 348.98 319.56C359.58 270.01 389.28 221.47 391.3 171.19C435.05 183 477.83 194.81 520 206.67C509.21 257 479.55 306 477.73 356.73Z" fill="#EBEBEB"/>
<path d="M477.73 356.73C433.94 344.3 391.1 332 348.92 319.84L348.61 319.75L348.67 319.47C359.23 269.91 388.87 221.35 390.79 171.05C390.79 170.9 390.79 170.74 390.79 170.59L391.3 170.73C435.08 182.57 477.88 194.44 520 206.35L520.35 206.45C520.35 206.55 520.35 206.66 520.28 206.77C509.42 257.09 479.67 306.08 477.73 356.73ZM477.73 356.73C479.43 306 509 257 519.61 206.57C519.7 206.71 519.79 206.85 519.89 206.99C477.77 195.18 435 183.4 391.28 171.64L391.81 171.32C389.68 221.59 359.93 270.11 349.28 319.64L349.04 319.28C391.15 331.63 434 344.11 477.73 356.73Z" fill="#DBDBDB"/>
<path d="M470.8 264.67C464.29 282.06 444.56 291.75 426.15 286.31C407.74 280.87 398.09 262.5 404.44 245.21C410.79 227.92 429.78 218.08 448.44 223.41C467.1 228.74 477.39 247.27 470.8 264.67Z" fill="#455A64"/>
<path d="M437.64 254.92C430.09 263.54 422.45 272.14 415 280.74C409.614 276.773 405.668 271.158 403.763 264.746C401.857 258.333 402.095 251.475 404.44 245.21C410.7 228 429.9 218.11 448.44 223.41C466.98 228.71 477.37 247.41 470.82 264.67C459.76 261.41 448.7 258.16 437.64 254.92Z" fill="#DBDBDB"/>
<path d="M437.64 254.92C444.22 263.77 450.73 272.62 457.38 281.5C452.843 284.537 447.695 286.542 442.299 287.373C436.903 288.204 431.39 287.841 426.15 286.31C407.77 280.92 398.15 262.39 404.44 245.21C410.73 228.03 429.9 218.11 448.44 223.41C466.98 228.71 477.37 247.41 470.82 264.67C459.76 261.41 448.7 258.16 437.64 254.92Z" fill="#DBDBDB"/>
<path d="M437.64 254.92L402.85 260.72C402.077 255.498 402.624 250.166 404.44 245.21C410.7 228 429.9 218.11 448.44 223.41C466.98 228.71 477.37 247.41 470.82 264.67C459.76 261.41 448.7 258.16 437.64 254.92Z" fill="#0284B2"/>
<path d="M401.2 193C418.98 197.94 436.63 202.883 454.15 207.83C453.84 209.12 453.53 210.4 453.2 211.68C435.733 206.727 418.16 201.78 400.48 196.84C400.73 195.56 401 194.28 401.2 193Z" fill="#DBDBDB"/>
<path d="M397.19 292.06C420.61 298.973 444.157 305.91 467.83 312.87C467.48 314.15 467.13 315.43 466.83 316.71C443.05 309.73 419.43 302.783 395.97 295.87C396.35 294.6 396.77 293.33 397.19 292.06Z" fill="#DBDBDB"/>
<path d="M394.13 301.67C417.703 308.603 441.44 315.57 465.34 322.57C465.04 323.85 464.75 325.14 464.47 326.42C440.47 319.4 416.647 312.42 393 305.48C393.37 304.21 393.74 302.94 394.13 301.67Z" fill="#DBDBDB"/>
<path d="M391.39 311.29C415.15 318.257 439.117 325.257 463.29 332.29C463.05 333.57 462.82 334.86 462.61 336.15C438.31 329.09 414.24 322.073 390.4 315.1C390.72 313.84 391.05 312.56 391.39 311.29Z" fill="#DBDBDB"/>
<path d="M383.34 292.16L374.82 289.66L376.11 285.86L384.62 288.37C384.19 289.63 383.76 290.9 383.34 292.16Z" fill="#0284B2"/>
<path d="M380.31 301.76L371.73 299.24C372.12 297.98 372.52 296.71 372.92 295.44L381.48 297.96C381.08 299.22 380.69 300.49 380.31 301.76Z" fill="#455A64"/>
<path d="M377.61 311.37L369 308.84C369.34 307.57 369.69 306.31 370.05 305.04L378.67 307.56C378.29 308.827 377.937 310.097 377.61 311.37Z" fill="#DBDBDB"/>
<path d="M478.67 417.57H254.38L237.08 268.48H461.37L478.67 417.57Z" fill="#0284B2"/>
<path d="M314.54 253.04H235.29L237.08 268.48H320.88L314.54 253.04Z" fill="#0284B2"/>
<path d="M390.46 154.36C390.106 153.057 389.938 151.71 389.96 150.36C389.933 149.01 390.101 147.662 390.46 146.36C391.128 148.985 391.128 151.735 390.46 154.36Z" fill="#263238"/>
<path d="M382.32 156.71C381.367 155.757 380.549 154.677 379.89 153.5C379.199 152.343 378.673 151.094 378.33 149.79C379.284 150.743 380.102 151.823 380.76 153C381.452 154.157 381.977 155.406 382.32 156.71Z" fill="#263238"/>
<path d="M376.46 162.81C375.156 162.467 373.907 161.942 372.75 161.25C371.57 160.597 370.489 159.779 369.54 158.82C370.844 159.163 372.093 159.688 373.25 160.38C374.425 161.041 375.505 161.859 376.46 162.81Z" fill="#263238"/>
<path d="M374.43 171C371.805 171.668 369.055 171.668 366.43 171C369.057 170.345 371.804 170.345 374.43 171Z" fill="#263238"/>
<path d="M376.78 179.17C375.827 180.124 374.747 180.942 373.57 181.6C372.413 182.292 371.164 182.817 369.86 183.16C371.795 181.268 374.174 179.892 376.78 179.16V179.17Z" fill="#263238"/>
<path d="M382.88 185C382.535 186.303 382.01 187.552 381.32 188.71C380.665 189.886 379.847 190.963 378.89 191.91C379.233 190.609 379.759 189.364 380.45 188.21C381.106 187.032 381.924 185.951 382.88 185Z" fill="#263238"/>
<path d="M391.1 187.07C391.77 189.695 391.77 192.445 391.1 195.07C390.43 192.445 390.43 189.695 391.1 187.07Z" fill="#263238"/>
<path d="M399.24 184.71C400.192 185.665 401.009 186.745 401.67 187.92C402.362 189.077 402.887 190.326 403.23 191.63C402.271 190.681 401.453 189.6 400.8 188.42C400.109 187.263 399.583 186.014 399.24 184.71Z" fill="#263238"/>
<path d="M405.11 178.61C406.41 178.953 407.656 179.478 408.81 180.17C409.981 180.828 411.055 181.646 412 182.6C409.396 181.872 407.018 180.496 405.09 178.6L405.11 178.61Z" fill="#263238"/>
<path d="M407.13 170.39C408.434 170.043 409.78 169.874 411.13 169.89C412.48 169.863 413.828 170.031 415.13 170.39C413.828 170.749 412.48 170.917 411.13 170.89C409.78 170.906 408.434 170.737 407.13 170.39Z" fill="#263238"/>
<path d="M404.78 162.26C405.733 161.306 406.813 160.488 407.99 159.83C409.145 159.131 410.394 158.602 411.7 158.26C410.752 159.219 409.671 160.037 408.49 160.69C407.331 161.381 406.083 161.909 404.78 162.26Z" fill="#263238"/>
<path d="M398.68 156.39C399.023 155.086 399.549 153.837 400.24 152.68C400.893 151.5 401.711 150.419 402.67 149.47C402.327 150.774 401.802 152.023 401.11 153.18C400.452 154.357 399.635 155.437 398.68 156.39Z" fill="#263238"/>
<path d="M394.54 336.36H445.93C447.434 333.147 448.3 329.673 448.48 326.13V285H397.09V326.7C397.09 330.83 394.54 336.36 394.54 336.36Z" fill="#455A64"/>
<path d="M403.38 297.12C409.38 296.62 415.47 296.51 421.51 296.48C427.55 296.45 433.6 296.62 439.64 297.12C433.64 297.61 427.55 297.73 421.51 297.75C415.47 297.77 409.42 297.61 403.38 297.12Z" fill="white"/>
<path d="M403.38 303.89C408.82 303.4 414.25 303.28 419.69 303.25C425.13 303.22 430.56 303.39 435.99 303.89C430.56 304.39 425.12 304.5 419.69 304.53C414.26 304.56 408.82 304.39 403.38 303.89Z" fill="white"/>
<path d="M403.38 310.67C408.13 310.17 412.89 310.06 417.64 310.03C422.404 310.004 427.167 310.217 431.91 310.67C427.15 311.16 422.4 311.28 417.64 311.3C412.88 311.32 408.13 311.16 403.38 310.67Z" fill="white"/>
<path d="M403.38 317.44C409.38 316.95 415.47 316.83 421.51 316.8C427.55 316.77 433.6 316.94 439.64 317.44C433.64 317.94 427.55 318.05 421.51 318.08C415.47 318.11 409.42 317.94 403.38 317.44Z" fill="white"/>
</svg>
